<svg xmlns="http://www.w3.org/2000/svg" version="1.1" x="0" y="0" width="20" height="20" viewBox="0 0 348.3 348.3" xml:space="preserve" fill="#007bff"><path d="M336.6 68.6L231 174.2l105.5 105.5c15.7 15.7 15.7 41.1 0 56.9 -7.8 7.8-18.1 11.8-28.4 11.8 -10.3 0-20.6-3.9-28.4-11.8L174.2 231 68.6 336.6c-7.8 7.8-18.1 11.8-28.4 11.8 -10.3 0-20.6-3.9-28.4-11.8 -15.7-15.7-15.7-41.1 0-56.8l105.5-105.5L11.8 68.6c-15.7-15.7-15.7-41.1 0-56.8 15.7-15.7 41.1-15.7 56.8 0l105.6 105.6L279.7 11.8c15.7-15.7 41.1-15.7 56.8 0C352.3 27.5 352.3 52.9 336.6 68.6z"/></svg>